# xmcd
#
# Track frame offsets: 
#        150
#        15956
#        26351
#        47212
#        63230
#        78596
#        100752
#        117887
#        131189
#        145855
#
# Disc length: 2109 seconds
#
# Revision: 0
# Processed by: cddbd v1.5.2PL0 Copyright (c) Steve Scherf et al.
# Submitted via: ExactAudioCopy v0.99pb5
#
DISCID=7c083b0a
DTITLE=Various Artist - Musikexpress Nr. 191
DYEAR=2012
DGENRE=Alternative
TTITLE0=Tame Impala - Elephant
TTITLE1=Ecke Schönhauser - Partner In Crime
TTITLE2=Fritz Kalkbrenner - Peace Of Mind (Musikexpress Edit)
TTITLE3=Melody's Echo Chamber - I Follow You
TTITLE4=Linnea Olsson - Dinosaur
TTITLE5=Bernhard Eder - Long Way To Run
TTITLE6=Hans Unstern - Ich schäme mich
TTITLE7=Hgicht. - Der Rosenkavalier
TTITLE8=Die Liga der gewöhnlichen Gentlemen - Mach mich traurig
TTITLE9=Neigungsgruppe Sex, Gewalt and gute Laune - Wüde Hund
EXTD=
EXTT0=
EXTT1=
EXTT2=
EXTT3=
EXTT4=
EXTT5=
EXTT6=
EXTT7=
EXTT8=
EXTT9=
PLAYORDER=
